<svg xmlns="http://www.w3.org/2000/svg" xmlns:xlink="http://www.w3.org/1999/xlink" version="1.1" viewBox="0 0 172 172"><g fill="none" fill-rule="nonzero" stroke="none" stroke-width="1" stroke-linecap="butt" stroke-linejoin="miter" stroke-miterlimit="10" stroke-dasharray="" stroke-dashoffset="0" font-family="none" font-weight="none" font-size="none" text-anchor="none" style="mix-blend-mode: normal"><path d="M0,172v-172h172v172z" fill="none"/><g id="original-icon" fill="#000000" opacity="0" visibility="hidden"><path d="M66.73063,20.64c-8.18344,0 -15.23813,5.77813 -16.85063,13.80031l-1.3975,6.83969h-17.5225c-9.50031,0 -17.2,7.69969 -17.2,17.2v72.24c0,9.50031 7.69969,17.2 17.2,17.2h110.08c9.50031,0 17.2,-7.69969 17.2,-17.2v-72.24c0,-9.50031 -7.69969,-17.2 -17.2,-17.2h-17.5225l-1.3975,-6.83969c-1.6125,-8.03563 -8.66719,-13.80031 -16.85062,-13.80031zM66.73063,27.52h38.53875c4.89125,0 9.15094,3.48031 10.11844,8.2775l1.37062,6.83969c0.65844,3.21156 3.48031,5.52281 6.75906,5.52281h17.5225c5.68406,0 10.32,4.63594 10.32,10.32v72.24c0,5.68406 -4.63594,10.32 -10.32,10.32h-110.08c-5.68406,0 -10.32,-4.63594 -10.32,-10.32v-72.24c0,-5.68406 4.63594,-10.32 10.32,-10.32h17.5225c3.27875,0 6.10063,-2.31125 6.75906,-5.52281l1.37062,-6.83969c0.9675,-4.79719 5.22719,-8.2775 10.11844,-8.2775zM86,58.48c-19.00062,0 -34.4,15.39938 -34.4,34.4c0,19.00063 15.39938,34.4 34.4,34.4c19.00063,0 34.4,-15.39937 34.4,-34.4c0,-19.00062 -15.39937,-34.4 -34.4,-34.4zM86,65.36c15.17094,0 27.52,12.34906 27.52,27.52c0,15.17094 -12.34906,27.52 -27.52,27.52c-15.17094,0 -27.52,-12.34906 -27.52,-27.52c0,-15.17094 12.34906,-27.52 27.52,-27.52z"/></g><g id="subtracted-icon" fill="#000000"><path d="M105.26938,20.64c8.18344,0 15.23812,5.76469 16.85062,13.80031l1.3975,6.83969h17.5225c9.50031,0 17.2,7.69969 17.2,17.2l0,43.40751c-2.17666,-1.2663 -4.47797,-2.3394 -6.88,-3.19536v-40.21214c0,-5.68406 -4.63594,-10.32 -10.32,-10.32h-17.5225c-3.27875,0 -6.10062,-2.31125 -6.75906,-5.52281l-1.37062,-6.83969c-0.9675,-4.79719 -5.22719,-8.2775 -10.11844,-8.2775h-38.53875c-4.89125,0 -9.15094,3.48031 -10.11844,8.2775l-1.37062,6.83969c-0.65844,3.21156 -3.48031,5.52281 -6.75906,5.52281h-17.5225c-5.68406,0 -10.32,4.63594 -10.32,10.32v72.24c0,5.68406 4.63594,10.32 10.32,10.32l65.50307,0c0.19651,2.35349 0.59269,4.65253 1.17143,6.88h-66.6745c-9.50031,0 -17.2,-7.69969 -17.2,-17.2v-72.24c0,-9.50031 7.69969,-17.2 17.2,-17.2h17.5225l1.3975,-6.83969c1.6125,-8.02219 8.66719,-13.80031 16.85063,-13.80031zM120.4,92.88c0,2.61863 -0.29249,5.16886 -0.84659,7.6198c-3.84614,1.88496 -7.36112,4.35128 -10.42852,7.28255c2.77984,-4.29788 4.39511,-9.41556 4.39511,-14.90234c0,-15.17094 -12.34906,-27.52 -27.52,-27.52c-15.17094,0 -27.52,12.34906 -27.52,27.52c0,15.17094 12.34906,27.52 27.52,27.52c6.88696,0 13.1924,-2.54486 18.02504,-6.74332c-2.46196,3.43652 -4.41112,7.26224 -5.73306,11.36274c-3.81707,1.46048 -7.96097,2.26059 -12.29199,2.26059c-19.00062,0 -34.4,-15.39937 -34.4,-34.4c0,-19.00062 15.39938,-34.4 34.4,-34.4c19.00063,0 34.4,15.39938 34.4,34.4z"/></g><g fill="#000000"><g><g id="Слой_2" font-family="Inter, sans-serif" font-weight="400" font-size="16" text-anchor="start" visibility="hidden"/><g id="Android_x5F_4" font-family="Inter, sans-serif" font-weight="400" font-size="16" text-anchor="start" visibility="hidden"/><g id="Android_x5F_5" font-family="Inter, sans-serif" font-weight="400" font-size="16" text-anchor="start" visibility="hidden"/><g id="Windows_x5F_8" font-family="Inter, sans-serif" font-weight="400" font-size="16" text-anchor="start" visibility="hidden"/><g id="Windows_x5F_10" font-family="Inter, sans-serif" font-weight="400" font-size="16" text-anchor="start" visibility="hidden"/><g id="Color" font-family="Inter, sans-serif" font-weight="400" font-size="16" text-anchor="start" visibility="hidden"/><g id="IOS" font-family="Inter, sans-serif" font-weight="400" font-size="16" text-anchor="start" visibility="hidden"/><g id="IOS_copy"><path d="M157.896,137.6c0,2.064 -1.376,3.44 -3.44,3.44h-13.416v13.416c0,2.064 -1.376,3.44 -3.44,3.44c-2.064,0 -3.44,-1.376 -3.44,-3.44v-13.416h-13.416c-2.064,0 -3.44,-1.376 -3.44,-3.44c0,-2.064 1.376,-3.44 3.44,-3.44h13.416v-13.416c0,-2.064 1.376,-3.44 3.44,-3.44c2.064,0 3.44,1.376 3.44,3.44v13.416h13.416c2.064,0 3.44,1.376 3.44,3.44zM172,137.6c0,18.92 -15.48,34.4 -34.4,34.4c-18.92,0 -34.4,-15.48 -34.4,-34.4c0,-18.92 15.48,-34.4 34.4,-34.4c18.92,0 34.4,15.48 34.4,34.4zM165.12,137.6c0,-15.136 -12.384,-27.52 -27.52,-27.52c-15.136,0 -27.52,12.384 -27.52,27.52c0,15.136 12.384,27.52 27.52,27.52c15.136,0 27.52,-12.384 27.52,-27.52z"/></g></g><g opacity="0"><g id="IOS" font-family="Inter, sans-serif" font-weight="400" font-size="16" text-anchor="start" visibility="hidden"/><g id="IOS_copy"><path d="M137.6,96.32c-22.704,0 -41.28,18.576 -41.28,41.28c0,22.704 18.576,41.28 41.28,41.28c22.704,0 41.28,-18.576 41.28,-41.28c0,-22.704 -18.576,-41.28 -41.28,-41.28z"/></g></g></g></g></svg>
