<svg xmlns="http://www.w3.org/2000/svg" xmlns:xlink="http://www.w3.org/1999/xlink" version="1.1" viewBox="0 0 172 172">
  <g transform="">
    <g fill="none" fill-rule="nonzero" stroke="none" stroke-width="1" stroke-linecap="butt" stroke-linejoin="miter" stroke-miterlimit="10" stroke-dasharray="" stroke-dashoffset="0" font-family="none" font-weight="none" font-size="none" text-anchor="none" style="mix-blend-mode: normal">
      <path d="M0,172v-172h172v172z" fill="none" stroke="none"/><path d="" fill="none" stroke="none"/>
      <path d="" fill="none" stroke="none"/>
      <path d="" fill="none" stroke="none"/>
      <path d="" fill="none" stroke="none"/>
      <path d="" fill="none" stroke="none"/>
      <g id="original-icon" fill="#000000" stroke="none" opacity="0" visibility="hidden">
        <path d="M86,0c-7.56531,0 -13.76,6.19469 -13.76,13.76c0,1.77375 0.34938,3.49375 0.9675,5.0525c-19.35,5.02563 -31.9275,21.83594 -31.9275,43.1075c0,26.94219 -6.61125,39.21063 -12.9,46.1175c-3.14437,3.45344 -6.24844,5.54969 -8.9225,7.525c-1.34375,0.98094 -2.56656,1.96188 -3.655,3.225c-1.08844,1.26313 -2.0425,3.06375 -2.0425,5.0525c0,4.73 2.9025,8.74781 6.9875,11.395c4.085,2.64719 9.44656,4.35375 15.91,5.6975c8.385,1.73344 18.73188,2.64719 30.1,3.1175c-0.86,2.28438 -1.3975,4.74344 -1.3975,7.31c0,11.35469 9.28531,20.64 20.64,20.64c11.35469,0 20.64,-9.28531 20.64,-20.64c0,-2.58 -0.52406,-5.03906 -1.3975,-7.31c11.36813,-0.47031 21.715,-1.38406 30.1,-3.1175c6.46344,-1.34375 11.825,-3.05031 15.91,-5.6975c4.085,-2.64719 6.9875,-6.665 6.9875,-11.395c0,-1.98875 -0.95406,-3.78937 -2.0425,-5.0525c-1.08844,-1.26312 -2.31125,-2.24406 -3.655,-3.225c-2.67406,-1.97531 -5.77812,-4.07156 -8.9225,-7.525c-6.28875,-6.90687 -12.9,-19.17531 -12.9,-46.1175c0,-21.25812 -12.60437,-38.055 -31.9275,-43.1075c0.61813,-1.55875 0.9675,-3.27875 0.9675,-5.0525c0,-7.56531 -6.19469,-13.76 -13.76,-13.76zM86,6.88c3.84313,0 6.88,3.03688 6.88,6.88c0,3.84313 -3.03687,6.88 -6.88,6.88c-3.84312,0 -6.88,-3.03687 -6.88,-6.88c0,-3.84312 3.03688,-6.88 6.88,-6.88zM94.0625,24.725c18.34219,3.26531 29.7775,17.44188 29.7775,37.195c0,28.09781 7.14875,42.52969 14.62,50.74c3.73563,4.09844 7.51156,6.665 9.9975,8.4925c1.23625,0.91375 2.16344,1.67969 2.58,2.15c0.41656,0.47031 0.3225,0.43 0.3225,0.5375c0,2.15 -0.99437,3.72219 -3.87,5.59c-2.87562,1.86781 -7.55187,3.60125 -13.545,4.8375c-11.98625,2.48594 -29.05187,3.3325 -47.945,3.3325c-18.89312,0 -35.95875,-0.84656 -47.945,-3.3325c-5.99312,-1.23625 -10.66937,-2.96969 -13.545,-4.8375c-2.87562,-1.86781 -3.87,-3.44 -3.87,-5.59c0,-0.1075 -0.09406,-0.06719 0.3225,-0.5375c0.41656,-0.47031 1.34375,-1.23625 2.58,-2.15c2.48594,-1.8275 6.26188,-4.39406 9.9975,-8.4925c7.47125,-8.21031 14.62,-22.64219 14.62,-50.74c0,-19.73969 11.44875,-33.80875 29.7775,-37.0875c2.28438,1.67969 5.03906,2.6875 8.0625,2.6875c3.05031,0 5.77813,-1.08844 8.0625,-2.795zM74.175,144.265c3.85656,0.08063 7.78031,0.215 11.825,0.215c4.04469,0 7.96844,-0.13437 11.825,-0.215c1.22281,2.06938 1.935,4.515 1.935,7.095c0,7.64594 -6.11406,13.76 -13.76,13.76c-7.64594,0 -13.76,-6.11406 -13.76,-13.76c0,-2.60687 0.68531,-5.02562 1.935,-7.095z"/>
      </g>
      <g id="subtracted-icon" fill="#000000" stroke="none">
        <path d="M99.76,13.76c0,1.77375 -0.34937,3.49375 -0.9675,5.0525c19.32313,5.0525 31.9275,21.84938 31.9275,43.1075c0,15.99748 2.33089,26.82153 5.54113,34.42158c-2.40452,0.07761 -4.75881,0.36346 -7.0453,0.83999c-3.20246,-8.43105 -5.37584,-19.76894 -5.37584,-35.26157c0,-19.75312 -11.43531,-33.92969 -29.7775,-37.195c-2.28437,1.70656 -5.01219,2.795 -8.0625,2.795c-3.02344,0 -5.77812,-1.00781 -8.0625,-2.6875c-18.32875,3.27875 -29.7775,17.34781 -29.7775,37.0875c0,28.09781 -7.14875,42.52969 -14.62,50.74c-3.73562,4.09844 -7.51156,6.665 -9.9975,8.4925c-1.23625,0.91375 -2.16344,1.67969 -2.58,2.15c-0.41656,0.47031 -0.3225,0.43 -0.3225,0.5375c0,2.15 0.99438,3.72219 3.87,5.59c2.87563,1.86781 7.55188,3.60125 13.545,4.8375c11.98625,2.48594 29.05188,3.3325 47.945,3.3325c3.51006,0 6.95705,-0.02922 10.3201,-0.09274c-0.00007,0.03091 -0.0001,0.06182 -0.0001,0.09274c0,2.27497 0.18651,4.5085 0.54499,6.68604c-3.54758,0.08093 -7.15542,0.19396 -10.86499,0.19396c-4.04469,0 -7.96844,-0.13437 -11.825,-0.215c-1.24969,2.06938 -1.935,4.48813 -1.935,7.095c0,7.64594 6.11406,13.76 13.76,13.76c6.87269,0 12.50768,-4.93994 13.57714,-11.492c1.1822,2.78276 2.66186,5.41167 4.3985,7.84622c-3.55155,6.27113 -10.28949,10.52579 -17.97564,10.52579c-11.35469,0 -20.64,-9.28531 -20.64,-20.64c0,-2.56656 0.5375,-5.02562 1.3975,-7.31c-11.36812,-0.47031 -21.715,-1.38406 -30.1,-3.1175c-6.46344,-1.34375 -11.825,-3.05031 -15.91,-5.6975c-4.085,-2.64719 -6.9875,-6.665 -6.9875,-11.395c0,-1.98875 0.95406,-3.78937 2.0425,-5.0525c1.08844,-1.26312 2.31125,-2.24406 3.655,-3.225c2.67406,-1.97531 5.77813,-4.07156 8.9225,-7.525c6.28875,-6.90687 12.9,-19.17531 12.9,-46.1175c0,-21.27156 12.5775,-38.08187 31.9275,-43.1075c-0.61812,-1.55875 -0.9675,-3.27875 -0.9675,-5.0525c0,-7.56531 6.19469,-13.76 13.76,-13.76c7.56531,0 13.76,6.19469 13.76,13.76zM79.12,13.76c0,3.84313 3.03688,6.88 6.88,6.88c3.84313,0 6.88,-3.03687 6.88,-6.88c0,-3.84312 -3.03687,-6.88 -6.88,-6.88c-3.84312,0 -6.88,3.03688 -6.88,6.88z"/>
      </g>
      <g stroke="none">
        <g fill="#e74c3c">
          <g id="Слой_2" font-family="Inter, sans-serif" font-weight="400" font-size="16" text-anchor="start" visibility="hidden"/>
          <g id="Android_x5F_4" font-family="Inter, sans-serif" font-weight="400" font-size="16" text-anchor="start" visibility="hidden"/>
          <g id="Android_x5F_5" font-family="Inter, sans-serif" font-weight="400" font-size="16" text-anchor="start" visibility="hidden"/>
          <g id="Windows_x5F_8" font-family="Inter, sans-serif" font-weight="400" font-size="16" text-anchor="start" visibility="hidden"/>
          <g id="Windows_x5F_10" font-family="Inter, sans-serif" font-weight="400" font-size="16" text-anchor="start" visibility="hidden"/>
          <g id="Color" font-family="Inter, sans-serif" font-weight="400" font-size="16" text-anchor="start" visibility="hidden"/>
          <g id="IOS" font-family="Inter, sans-serif" font-weight="400" font-size="16" text-anchor="start" visibility="hidden"/>
          <g id="IOS_copy">
            <path d="M137.6,172c-18.92,0 -34.4,-15.48 -34.4,-34.4c0,-18.92 15.48,-34.4 34.4,-34.4c18.92,0 34.4,15.48 34.4,34.4c0,18.92 -15.48,34.4 -34.4,34.4zM137.6,110.08c-15.136,0 -27.52,12.384 -27.52,27.52c0,15.136 12.384,27.52 27.52,27.52c15.136,0 27.52,-12.384 27.52,-27.52c0,-15.136 -12.384,-27.52 -27.52,-27.52zM134.848,147.92c-0.344,0 -0.688,0.344 -0.688,0.688v5.504c0,0.344 0.344,0.688 0.688,0.688h5.504c0.344,0 0.688,-0.344 0.688,-0.688v-5.504c0,-0.344 -0.344,-0.688 -0.688,-0.688zM134.848,120.4c-0.344,0 -0.688,0.344 -0.688,0.688v19.264c0,0.344 0.344,0.688 0.688,0.688h5.504c0.344,0 0.688,-0.344 0.688,-0.688v-19.264c0,-0.344 -0.344,-0.688 -0.688,-0.688z"/>
          </g>
        </g>
        <g fill="#000000" opacity="0">
          <g id="IOS" font-family="Inter, sans-serif" font-weight="400" font-size="16" text-anchor="start" visibility="hidden"/>
          <g id="IOS_copy">
            <path d="M137.6,96.32c-22.704,0 -41.28,18.576 -41.28,41.28c0,22.704 18.576,41.28 41.28,41.28c22.704,0 41.28,-18.576 41.28,-41.28c0,-22.704 -18.576,-41.28 -41.28,-41.28z"/>
          </g>
        </g>
      </g>
      <path d="M103.2,172v-68.8h68.8v68.8z" id="overlay-drag" fill="#ff0000" stroke="none" opacity="0"/>
    </g>
  </g>
</svg>
